# Blender v2.63 (sub 0) OBJ File: ''
# www.blender.org
mtllib smallbookshelves.mtl
o Mesh.003_middle_shelf
v 4.758883 7.757414 2.679879
v 4.320564 7.795774 2.679879
v 4.539724 7.776574 1.279879
v 4.758883 7.757415 -0.120121
v 4.320564 7.795774 -0.120121
v 4.884724 9.195855 1.279880
v 5.010604 10.634335 -0.120120
v 5.010604 10.634335 2.679880
v 4.665564 9.215054 2.679880
v 4.572244 10.672695 2.679880
v 4.446404 9.234215 1.279880
v 4.572244 10.672695 -0.120120
v 4.791404 10.653495 1.279880
v 4.665564 9.215055 -0.120120
v 5.576604 7.249454 3.239879
v -4.823396 7.249454 3.239879
v 0.376604 7.249454 1.439879
v 5.576604 7.249454 -0.360121
v -4.823396 7.249454 -0.360121
v 5.576604 7.449454 1.439879
v 5.576604 7.649455 -0.360121
v 5.576604 7.649454 3.239879
v 0.376604 7.449454 3.239879
v -4.823396 7.649454 3.239879
v -4.823396 7.449454 1.439879
v -4.823396 7.649455 -0.360121
v 0.376604 7.649454 1.439879
v 0.376604 7.449455 -0.360121
v 5.566604 -0.070266 3.319878
v 5.566604 -0.070265 -0.680122
v 5.716604 -0.070266 1.319878
v 5.866604 -0.070266 3.319878
v 5.866604 -0.070265 -0.680122
v 5.716604 6.689734 3.319880
v 5.866604 13.449734 3.319880
v 5.566604 13.449734 3.319880
v 5.566604 6.689734 1.319879
v 5.566604 13.449735 -0.680120
v 5.716604 6.689734 -0.680121
v 5.866604 13.449735 -0.680120
v 5.716604 13.449734 1.319880
v 5.866604 6.689734 1.319879
v 6.116604 13.389733 3.639880
v -5.363397 13.389733 3.639880
v 0.376604 13.389734 1.439880
v 6.116604 13.389734 -0.760120
v -5.363397 13.389734 -0.760120
v 6.116604 13.589735 1.439880
v 6.116604 13.789735 -0.760120
v 6.116604 13.789734 3.639880
v 0.376604 13.589734 3.639880
v -5.363397 13.789734 3.639880
v -5.363397 13.589735 1.439880
v -5.363397 13.789735 -0.760120
v 0.376604 13.789734 1.439880
v 0.376604 13.589735 -0.760120
v 5.318884 7.757414 2.679879
v 4.880564 7.795774 2.679879
v 5.099724 7.776574 1.279879
v 5.318884 7.757415 -0.120121
v 4.880564 7.795774 -0.120121
v 5.475764 9.550574 1.279880
v 5.632644 11.343695 -0.120120
v 5.632644 11.343694 2.679880
v 5.256604 9.569735 2.679880
v 5.194324 11.382053 2.679880
v 5.037444 9.588895 1.279880
v 5.194324 11.382053 -0.120120
v 5.413484 11.362894 1.279880
v 5.256604 9.569735 -0.120120
v -3.493756 1.313814 2.679878
v -3.933676 1.306134 2.679878
v -3.713716 1.309974 1.279878
v -3.493756 1.313814 -0.120122
v -3.933676 1.306134 -0.120122
v -3.523436 3.013574 1.279879
v -3.553116 4.713335 -0.120121
v -3.553116 4.713334 2.679879
v -3.743396 3.009734 2.679879
v -3.993036 4.705654 2.679879
v -3.963356 3.005894 1.279879
v -3.993036 4.705655 -0.120121
v -3.773076 4.709495 1.279879
v -3.743396 3.009734 -0.120121
v -3.084716 7.802014 2.679879
v -3.281276 7.567534 2.854879
v -3.194076 7.790494 1.979879
v -3.084716 7.802015 -0.120121
v -3.035116 7.593414 1.279879
v -3.194076 7.790495 0.579879
v -3.522276 7.756015 -0.120121
v -3.281276 7.567535 -0.295121
v -3.412876 7.767495 0.579879
v -3.522276 7.756014 2.679879
v -3.527396 7.541654 1.279879
v -3.412876 7.767494 1.979879
v -3.173596 8.647895 1.979879
v -3.235156 9.496655 -0.295120
v -3.173596 8.647895 0.579880
v -3.440316 11.185575 -0.120120
v -3.435196 11.399895 1.279880
v -3.351436 10.339655 0.579880
v -3.440316 11.185574 2.679880
v -3.235156 9.496655 2.854880
v -3.351436 10.339655 1.979880
v -3.501796 8.613375 2.679880
v -3.282996 8.636374 2.679880
v -3.681356 11.374014 2.854880
v -3.460796 10.328175 2.679880
v -3.877916 11.139574 2.679880
v -3.727436 9.444895 2.854880
v -3.679596 10.305174 2.679880
v -3.611196 8.601894 0.579880
v -3.611196 8.601894 1.979879
v -3.927476 11.348175 1.279880
v -3.788996 10.293653 1.979880
v -3.877916 11.139575 -0.120120
v -3.727436 9.444895 -0.295120
v -3.788996 10.293654 0.579880
v -3.768516 11.151054 1.979880
v -3.549716 11.174055 1.979880
v -3.681356 11.374015 -0.295120
v -3.549716 11.174055 0.579880
v -3.768516 11.151054 0.579880
v -3.282996 8.636374 -0.120120
v -3.501796 8.613375 -0.120120
v -3.679596 10.305175 -0.120120
v -3.460796 10.328175 -0.120120
v -3.303476 7.779014 1.279879
v -3.262516 9.493774 1.279880
v -3.481316 9.470774 2.679880
v -3.700116 9.447775 1.279880
v -3.659116 11.162575 1.279880
v -3.481316 9.470775 -0.120120
v 5.856604 0.829735 -0.500122
v -4.943397 0.829735 -0.500122
v 0.456604 0.829735 -0.600122
v 5.856604 0.829735 -0.700122
v -4.943397 0.829735 -0.700122
v 5.856604 7.189734 -0.600121
v 5.856604 13.549735 -0.700120
v 5.856604 13.549735 -0.500120
v 0.456604 7.189734 -0.500121
v -4.943397 13.549735 -0.500120
v -4.943397 7.189734 -0.600121
v -4.943397 13.549735 -0.700120
v 0.456604 13.549735 -0.600120
v 0.456604 7.189734 -0.700121
v -4.953396 -0.110266 3.359878
v -4.953396 -0.110265 -0.640122
v -4.803396 -0.110266 1.359878
v -4.653397 -0.110266 3.359878
v -4.653397 -0.110265 -0.640122
v -4.803396 6.689734 3.359879
v -4.653397 13.489734 3.359880
v -4.953396 13.489734 3.359880
v -4.953396 6.689734 1.359879
v -4.953396 13.489735 -0.640120
v -4.803396 6.689734 -0.640121
v -4.653397 13.489735 -0.640120
v -4.803396 13.489735 1.359880
v -4.653397 6.689734 1.359879
v -3.949476 1.303734 2.679878
v -4.388876 1.280694 2.679878
v -4.169196 1.292214 1.279878
v -3.949476 1.303734 -0.120122
v -4.388876 1.280694 -0.120122
v -4.043716 3.101254 1.279879
v -4.137917 4.898775 -0.120121
v -4.137917 4.898774 2.679879
v -4.263396 3.089734 2.679879
v -4.577316 4.875734 2.679879
v -4.483076 3.078214 1.279879
v -4.577316 4.875735 -0.120121
v -4.357596 4.887255 1.279879
v -4.263396 3.089734 -0.120121
v -2.904196 1.278454 2.679878
v -3.343916 1.263093 2.679878
v -3.124076 1.270774 1.279878
v -2.904196 1.278454 -0.120122
v -3.343916 1.263094 -0.120122
v -2.963516 2.977414 1.279879
v -3.022876 4.676375 -0.120121
v -3.022876 4.676374 2.679879
v -3.183396 2.969734 2.679879
v -3.462596 4.661014 2.679879
v -3.403276 2.962054 1.279879
v -3.462596 4.661015 -0.120121
v -3.242716 4.668694 1.279879
v -3.183396 2.969734 -0.120121
v 5.576604 0.869734 3.239878
v -4.823396 0.869734 3.239878
v 0.376604 0.869734 1.439878
v 5.576604 0.869735 -0.360122
v -4.823396 0.869735 -0.360122
v 5.576604 1.069734 1.439878
v 5.576604 1.269735 -0.360122
v 5.576604 1.269734 3.239878
v 0.376604 1.069734 3.239878
v -4.823396 1.269734 3.239878
v -4.823396 1.069734 1.439878
v -4.823396 1.269735 -0.360122
v 0.376604 1.269734 1.439878
v 0.376604 1.069735 -0.360122
v -3.748876 7.732454 2.679879
v -4.490956 7.706534 2.679879
v -4.119916 7.719494 1.279879
v -3.748876 7.732455 -0.120121
v -4.490956 7.706535 -0.120121
v -3.791676 8.958055 1.279880
v -3.834476 10.183695 -0.120120
v -3.834476 10.183695 2.679880
v -4.162716 8.945095 2.679880
v -4.576556 10.157774 2.679880
v -4.533756 8.932135 1.279880
v -4.576556 10.157775 -0.120120
v -4.205516 10.170734 1.279880
v -4.162716 8.945095 -0.120120
vn 0.577349 -0.577349 0.577349
vn -0.577349 -0.577349 0.577349
vn 0.000000 -1.000000 0.000000
vn 0.577349 -0.577349 -0.577349
vn -0.577349 -0.577349 -0.577349
vn 1.000000 0.000000 0.000000
vn 0.577349 0.577349 -0.577349
vn 0.577349 0.577349 0.577349
vn 0.000000 0.000000 1.000000
vn -0.577349 0.577349 0.577349
vn -1.000000 0.000000 0.000000
vn -0.577349 0.577349 -0.577349
vn 0.000000 1.000000 0.000000
vn 0.000000 0.000000 -1.000000
vn 0.999969 0.000000 0.000000
vn 0.577319 0.577349 -0.577349
vn 0.577319 0.577349 0.577349
vn -0.577319 0.577349 0.577349
vn -0.577319 0.577349 -0.577349
vn 0.524827 -0.625477 0.577349
vn -0.625477 -0.524796 0.577349
vn -0.087161 -0.996185 0.000000
vn 0.524827 -0.625477 -0.577349
vn -0.625477 -0.524796 -0.577349
vn 0.996185 -0.087161 0.000000
vn 0.625477 0.524827 -0.577319
vn 0.625477 0.524827 0.577319
vn -0.524827 0.625477 0.577319
vn -0.996185 0.087130 0.000000
vn -0.524827 0.625477 -0.577319
vn 0.087161 0.996185 0.000000
vn 0.902280 -0.232246 0.363201
vn 0.077059 -0.733421 0.675375
vn -0.211219 -0.977264 -0.018250
vn 0.902280 -0.232246 -0.363201
vn 0.394818 -0.918729 0.000000
vn -0.211219 -0.977264 0.018250
vn -0.834284 -0.414777 -0.363170
vn 0.077059 -0.733421 -0.675375
vn 0.409772 -0.911985 0.018250
vn -0.834284 -0.414777 0.363170
vn -0.195166 -0.980743 0.000000
vn 0.409772 -0.911985 -0.018250
vn 0.994140 0.107700 -0.005036
vn 0.340434 0.035798 -0.939573
vn 0.994140 0.107700 0.005036
vn 0.834254 0.414838 -0.363170
vn 0.195166 0.980743 0.000000
vn 0.994812 0.101321 0.005066
vn 0.834254 0.414838 0.363170
vn 0.340434 0.035798 0.939573
vn 0.994812 0.101321 -0.005066
vn 0.275857 0.037782 0.960448
vn -0.277657 -0.020386 0.960448
vn -0.077090 0.733390 0.675375
vn -0.275857 -0.037782 0.960448
vn -0.902280 0.232307 0.363170
vn -0.340434 -0.035768 0.939573
vn 0.277627 0.020386 0.960448
vn -0.994812 -0.101352 0.005036
vn -0.994812 -0.101352 -0.005036
vn -0.394757 0.918760 0.000000
vn -0.994140 -0.107669 -0.005036
vn -0.902280 0.232307 -0.363140
vn -0.340434 -0.035768 -0.939573
vn -0.994140 -0.107669 0.005036
vn 0.211249 0.977233 -0.018250
vn -0.409803 0.911985 -0.018250
vn -0.077090 0.733390 -0.675375
vn -0.409803 0.911954 0.018250
vn 0.211249 0.977233 0.018250
vn -0.277657 -0.020386 -0.960448
vn 0.275857 0.037782 -0.960448
vn 0.277627 0.020386 -0.960448
vn -0.275857 -0.037782 -0.960448
vn 0.104526 -0.994507 0.000000
vn 0.994507 0.104526 0.000000
vn -0.994507 -0.104495 0.000000
vn -0.104526 0.994507 0.000000
vn 0.597125 -0.556841 0.577349
vn -0.556841 -0.597125 0.577349
vn 0.034883 -0.999390 0.000000
vn 0.597125 -0.556841 -0.577349
vn -0.556841 -0.597125 -0.577349
vn 0.999390 0.034883 0.000000
vn 0.556841 0.597125 -0.577349
vn 0.556841 0.597125 0.577349
vn -0.597125 0.556841 0.577349
vn -0.999390 -0.034883 0.000000
vn -0.597125 0.556841 -0.577349
vn -0.034883 0.999390 0.000000
vn 0.524827 -0.625446 0.577349
vn 0.524827 -0.625446 -0.577349
vn 0.996185 -0.087130 0.000000
vn 0.625477 0.524796 -0.577349
vn 0.625477 0.524796 0.577349
vn -0.524827 0.625446 0.577349
vn -0.524827 0.625446 -0.577349
vn 0.606769 -0.546312 0.577349
vn -0.546312 -0.606769 0.577319
vn 0.052339 -0.998627 0.000000
vn 0.606769 -0.546312 -0.577349
vn -0.546312 -0.606769 -0.577319
vn 0.998627 0.052339 0.000000
vn 0.546312 0.606769 -0.577319
vn 0.546312 0.606769 0.577319
vn -0.606769 0.546312 0.577349
vn -0.998627 -0.052339 0.000000
vn -0.606769 0.546312 -0.577349
vn -0.052339 0.998627 0.000000
vn 0.587329 -0.567156 0.577349
vn -0.567156 -0.587329 0.577349
vn 0.017426 -0.999847 0.000000
vn 0.587329 -0.567156 -0.577349
vn -0.567156 -0.587329 -0.577349
vn 0.999847 0.017457 0.000000
vn 0.567156 0.587329 -0.577349
vn 0.567156 0.587329 0.577349
vn -0.587329 0.567156 0.577349
vn -0.999847 -0.017457 0.000000
vn -0.587329 0.567156 -0.577349
vn -0.017426 0.999847 0.000000
usemtl brown
s 1
f 15//1 16//2 17//3
f 18//4 15//1 17//3
f 19//5 18//4 17//3
f 16//2 19//5 17//3
f 15//1 18//4 20//6
f 18//4 21//7 20//6
f 21//7 22//8 20//6
f 22//8 15//1 20//6
f 16//2 15//1 23//9
f 15//1 22//8 23//9
f 22//8 24//10 23//9
f 24//10 16//2 23//9
f 19//5 16//2 25//11
f 16//2 24//10 25//11
f 24//10 26//12 25//11
f 26//12 19//5 25//11
f 24//10 22//8 27//13
f 22//8 21//7 27//13
f 21//7 26//12 27//13
f 26//12 24//10 27//13
f 18//4 19//5 28//14
f 19//5 26//12 28//14
f 26//12 21//7 28//14
f 21//7 18//4 28//14
f 29//2 30//5 31//3
f 32//1 29//2 31//3
f 33//4 32//1 31//3
f 30//5 33//4 31//3
f 29//2 32//1 34//9
f 32//1 35//8 34//9
f 35//8 36//10 34//9
f 36//10 29//2 34//9
f 30//5 29//2 37//11
f 29//2 36//10 37//11
f 36//10 38//12 37//11
f 38//12 30//5 37//11
f 33//4 30//5 39//14
f 30//5 38//12 39//14
f 38//12 40//7 39//14
f 40//7 33//4 39//14
f 38//12 36//10 41//13
f 36//10 35//8 41//13
f 35//8 40//7 41//13
f 40//7 38//12 41//13
f 32//1 33//4 42//6
f 33//4 40//7 42//6
f 40//7 35//8 42//6
f 35//8 32//1 42//6
f 43//1 44//2 45//3
f 46//4 43//1 45//3
f 47//5 46//4 45//3
f 44//2 47//5 45//3
f 43//1 46//4 48//15
f 46//4 49//7 48//15
f 49//7 50//8 48//15
f 50//8 43//1 48//15
f 44//2 43//1 51//9
f 43//1 50//8 51//9
f 50//8 52//10 51//9
f 52//10 44//2 51//9
f 47//5 44//2 53//11
f 44//2 52//10 53//11
f 52//10 54//12 53//11
f 54//12 47//5 53//11
f 52//10 50//8 55//13
f 50//8 49//7 55//13
f 49//7 54//12 55//13
f 54//12 52//10 55//13
f 46//4 47//5 56//14
f 47//5 54//12 56//14
f 54//12 49//7 56//14
f 49//7 46//4 56//14
f 135//1 136//2 137//3
f 138//4 135//1 137//3
f 139//5 138//4 137//3
f 136//2 139//5 137//3
f 135//1 138//4 140//6
f 138//4 141//16 140//6
f 141//16 142//17 140//6
f 142//17 135//1 140//6
f 136//2 135//1 143//9
f 135//1 142//17 143//9
f 142//17 144//18 143//9
f 144//18 136//2 143//9
f 139//5 136//2 145//11
f 136//2 144//18 145//11
f 144//18 146//19 145//11
f 146//19 139//5 145//11
f 144//18 142//17 147//13
f 142//17 141//16 147//13
f 141//16 146//19 147//13
f 146//19 144//18 147//13
f 138//4 139//5 148//14
f 139//5 146//19 148//14
f 146//19 141//16 148//14
f 141//16 138//4 148//14
f 149//2 150//5 151//3
f 152//1 149//2 151//3
f 153//4 152//1 151//3
f 150//5 153//4 151//3
f 149//2 152//1 154//9
f 152//1 155//8 154//9
f 155//8 156//10 154//9
f 156//10 149//2 154//9
f 150//5 149//2 157//11
f 149//2 156//10 157//11
f 156//10 158//12 157//11
f 158//12 150//5 157//11
f 153//4 150//5 159//14
f 150//5 158//12 159//14
f 158//12 160//7 159//14
f 160//7 153//4 159//14
f 158//12 156//10 161//13
f 156//10 155//8 161//13
f 155//8 160//7 161//13
f 160//7 158//12 161//13
f 152//1 153//4 162//6
f 153//4 160//7 162//6
f 160//7 155//8 162//6
f 155//8 152//1 162//6
f 191//1 192//2 193//3
f 194//4 191//1 193//3
f 195//5 194//4 193//3
f 192//2 195//5 193//3
f 191//1 194//4 196//6
f 194//4 197//7 196//6
f 197//7 198//8 196//6
f 198//8 191//1 196//6
f 192//2 191//1 199//9
f 191//1 198//8 199//9
f 198//8 200//10 199//9
f 200//10 192//2 199//9
f 195//5 192//2 201//11
f 192//2 200//10 201//11
f 200//10 202//12 201//11
f 202//12 195//5 201//11
f 200//10 198//8 203//13
f 198//8 197//7 203//13
f 197//7 202//12 203//13
f 202//12 200//10 203//13
f 194//4 195//5 204//14
f 195//5 202//12 204//14
f 202//12 197//7 204//14
f 197//7 194//4 204//14
usemtl red_book
f 1//20 2//21 3//22
f 4//23 1//20 3//22
f 5//24 4//23 3//22
f 2//21 5//24 3//22
f 1//20 4//23 6//25
f 4//23 7//26 6//25
f 7//26 8//27 6//25
f 8//27 1//20 6//25
f 2//21 1//20 9//9
f 1//20 8//27 9//9
f 8//27 10//28 9//9
f 10//28 2//21 9//9
f 5//24 2//21 11//29
f 2//21 10//28 11//29
f 10//28 12//30 11//29
f 12//30 5//24 11//29
f 10//28 8//27 13//31
f 8//27 7//26 13//31
f 7//26 12//30 13//31
f 12//30 10//28 13//31
f 4//23 5//24 14//14
f 5//24 12//30 14//14
f 12//30 7//26 14//14
f 7//26 4//23 14//14
f 85//32 86//33 87//34
f 88//35 89//36 90//37
f 91//38 92//39 93//40
f 94//41 95//42 96//43
f 85//32 89//36 97//44
f 88//35 98//45 99//46
f 100//47 101//48 102//49
f 103//50 104//51 105//52
f 94//41 86//33 106//53
f 85//32 104//51 107//54
f 103//50 108//55 109//56
f 110//57 111//58 112//59
f 91//38 95//42 113//60
f 94//41 111//58 114//61
f 110//57 115//62 116//63
f 117//64 118//65 119//66
f 110//57 108//55 120//67
f 103//50 101//48 121//68
f 100//47 122//69 123//70
f 117//64 115//62 124//71
f 88//35 92//39 125//72
f 91//38 118//65 126//73
f 117//64 122//69 127//74
f 100//47 98//45 128//75
f 94//41 96//43 86//33
f 129//76 87//34 96//43
f 86//33 96//43 87//34
f 85//32 87//34 89//36
f 129//76 90//37 87//34
f 89//36 87//34 90//37
f 88//35 90//37 92//39
f 129//76 93//40 90//37
f 92//39 90//37 93//40
f 91//38 93//40 95//42
f 129//76 96//43 93//40
f 95//42 93//40 96//43
f 88//35 99//46 89//36
f 130//77 97//44 99//46
f 89//36 99//46 97//44
f 100//47 102//49 98//45
f 130//77 99//46 102//49
f 98//45 102//49 99//46
f 103//50 105//52 101//48
f 130//77 102//49 105//52
f 101//48 105//52 102//49
f 85//32 97//44 104//51
f 130//77 105//52 97//44
f 104//51 97//44 105//52
f 85//32 107//54 86//33
f 131//9 106//53 107//54
f 86//33 107//54 106//53
f 103//50 109//56 104//51
f 131//9 107//54 109//56
f 104//51 109//56 107//54
f 110//57 112//59 108//55
f 131//9 109//56 112//59
f 108//55 112//59 109//56
f 94//41 106//53 111//58
f 131//9 112//59 106//53
f 111//58 106//53 112//59
f 94//41 114//61 95//42
f 132//78 113//60 114//61
f 95//42 114//61 113//60
f 110//57 116//63 111//58
f 132//78 114//61 116//63
f 111//58 116//63 114//61
f 117//64 119//66 115//62
f 132//78 116//63 119//66
f 115//62 119//66 116//63
f 91//38 113//60 118//65
f 132//78 119//66 113//60
f 118//65 113//60 119//66
f 103//50 121//68 108//55
f 133//79 120//67 121//68
f 108//55 121//68 120//67
f 100//47 123//70 101//48
f 133//79 121//68 123//70
f 101//48 123//70 121//68
f 117//64 124//71 122//69
f 133//79 123//70 124//71
f 122//69 124//71 123//70
f 110//57 120//67 115//62
f 133//79 124//71 120//67
f 115//62 120//67 124//71
f 91//38 126//73 92//39
f 134//14 125//72 126//73
f 92//39 126//73 125//72
f 117//64 127//74 118//65
f 134//14 126//73 127//74
f 118//65 127//74 126//73
f 100//47 128//75 122//69
f 134//14 127//74 128//75
f 122//69 128//75 127//74
f 88//35 125//72 98//45
f 134//14 128//75 125//72
f 98//45 125//72 128//75
usemtl orange_book
f 177//80 178//81 179//82
f 180//83 177//80 179//82
f 181//84 180//83 179//82
f 178//81 181//84 179//82
f 177//80 180//83 182//85
f 180//83 183//86 182//85
f 183//86 184//87 182//85
f 184//87 177//80 182//85
f 178//81 177//80 185//9
f 177//80 184//87 185//9
f 184//87 186//88 185//9
f 186//88 178//81 185//9
f 181//84 178//81 187//89
f 178//81 186//88 187//89
f 186//88 188//90 187//89
f 188//90 181//84 187//89
f 186//88 184//87 189//91
f 184//87 183//86 189//91
f 183//86 188//90 189//91
f 188//90 186//88 189//91
f 180//83 181//84 190//14
f 181//84 188//90 190//14
f 188//90 183//86 190//14
f 183//86 180//83 190//14
f 205//80 206//81 207//82
f 208//83 205//80 207//82
f 209//84 208//83 207//82
f 206//81 209//84 207//82
f 205//80 208//83 210//85
f 208//83 211//86 210//85
f 211//86 212//87 210//85
f 212//87 205//80 210//85
f 206//81 205//80 213//9
f 205//80 212//87 213//9
f 212//87 214//88 213//9
f 214//88 206//81 213//9
f 209//84 206//81 215//89
f 206//81 214//88 215//89
f 214//88 216//90 215//89
f 216//90 209//84 215//89
f 214//88 212//87 217//91
f 212//87 211//86 217//91
f 211//86 216//90 217//91
f 216//90 214//88 217//91
f 208//83 209//84 218//14
f 209//84 216//90 218//14
f 216//90 211//86 218//14
f 211//86 208//83 218//14
usemtl green_book
f 57//92 58//21 59//22
f 60//93 57//92 59//22
f 61//24 60//93 59//22
f 58//21 61//24 59//22
f 57//92 60//93 62//94
f 60//93 63//95 62//94
f 63//95 64//96 62//94
f 64//96 57//92 62//94
f 58//21 57//92 65//9
f 57//92 64//96 65//9
f 64//96 66//97 65//9
f 66//97 58//21 65//9
f 61//24 58//21 67//29
f 58//21 66//97 67//29
f 66//97 68//98 67//29
f 68//98 61//24 67//29
f 66//97 64//96 69//31
f 64//96 63//95 69//31
f 63//95 68//98 69//31
f 68//98 66//97 69//31
f 60//93 61//24 70//14
f 61//24 68//98 70//14
f 68//98 63//95 70//14
f 63//95 60//93 70//14
f 163//99 164//100 165//101
f 166//102 163//99 165//101
f 167//103 166//102 165//101
f 164//100 167//103 165//101
f 163//99 166//102 168//104
f 166//102 169//105 168//104
f 169//105 170//106 168//104
f 170//106 163//99 168//104
f 164//100 163//99 171//9
f 163//99 170//106 171//9
f 170//106 172//107 171//9
f 172//107 164//100 171//9
f 167//103 164//100 173//108
f 164//100 172//107 173//108
f 172//107 174//109 173//108
f 174//109 167//103 173//108
f 172//107 170//106 175//110
f 170//106 169//105 175//110
f 169//105 174//109 175//110
f 174//109 172//107 175//110
f 166//102 167//103 176//14
f 167//103 174//109 176//14
f 174//109 169//105 176//14
f 169//105 166//102 176//14
usemtl white_book
f 71//111 72//112 73//113
f 74//114 71//111 73//113
f 75//115 74//114 73//113
f 72//112 75//115 73//113
f 71//111 74//114 76//116
f 74//114 77//117 76//116
f 77//117 78//118 76//116
f 78//118 71//111 76//116
f 72//112 71//111 79//9
f 71//111 78//118 79//9
f 78//118 80//119 79//9
f 80//119 72//112 79//9
f 75//115 72//112 81//120
f 72//112 80//119 81//120
f 80//119 82//121 81//120
f 82//121 75//115 81//120
f 80//119 78//118 83//122
f 78//118 77//117 83//122
f 77//117 82//121 83//122
f 82//121 80//119 83//122
f 74//114 75//115 84//14
f 75//115 82//121 84//14
f 82//121 77//117 84//14
f 77//117 74//114 84//14
